<?xml version="1.0" encoding="UTF-8" standalone="no"?>
<!-- Created with Inkscape (http://www.inkscape.org/) -->

<svg
   width="350.95117"
   height="81.166016"
   viewBox="0 0 100.86172 23.326731"
   version="1.1"
   id="svg1"
   inkscape:version="1.3.2 (091e20e, 2023-11-25, custom)"
   xml:space="preserve"
   sodipodi:docname="rice-bag.svg"
   inkscape:export-filename="rice-bag-front-back.png"
   inkscape:export-xdpi="96"
   inkscape:export-ydpi="96"
   xmlns:inkscape="http://www.inkscape.org/namespaces/inkscape"
   xmlns:sodipodi="http://sodipodi.sourceforge.net/DTD/sodipodi-0.dtd"
   xmlns="http://www.w3.org/2000/svg"
   xmlns:svg="http://www.w3.org/2000/svg"><sodipodi:namedview
     id="namedview1"
     pagecolor="#000000"
     bordercolor="#464646"
     borderopacity="1"
     inkscape:showpageshadow="0"
     inkscape:pageopacity="0"
     inkscape:pagecheckerboard="true"
     inkscape:deskcolor="#000000"
     inkscape:document-units="px"
     showborder="true"
     borderlayer="true"
     inkscape:zoom="0.44423694"
     inkscape:cx="688.8216"
     inkscape:cy="720.33632"
     inkscape:window-width="1600"
     inkscape:window-height="900"
     inkscape:window-x="0"
     inkscape:window-y="0"
     inkscape:window-maximized="0"
     inkscape:current-layer="g103"
     showgrid="false"
     showguides="false"
     inkscape:lockguides="true" /><defs
     id="defs1" /><g
     inkscape:label="Layer 1"
     inkscape:groupmode="layer"
     id="layer1"
     transform="translate(-89.496069,-140.47211)"><g
       id="g36"
       transform="translate(0.64694147,79.573801)"
       inkscape:label="logo-light"
       inkscape:export-filename="app-logo-light.svg"
       inkscape:export-xdpi="96"
       inkscape:export-ydpi="96"><path
         id="path31"
         style="fill:#008080;stroke:none;stroke-width:0.789932"
         d="m 161.89581,63.430982 c -2.33159,0 -4.20821,1.877176 -4.20821,4.20877 v 10.182325 c 0,2.331594 1.87662,4.20877 4.20821,4.20877 h 23.60627 c 2.3316,0 4.20877,-1.877176 4.20877,-4.20877 V 67.639752 c 0,-2.331594 -1.87717,-4.20877 -4.20877,-4.20877 z m -0.13415,3.452673 c 1.36212,0.157169 2.29623,0.550092 2.80266,1.17877 0.51517,0.646139 1.11765,2.261866 1.80745,4.846428 0.27941,1.004136 0.54136,1.842374 0.78585,2.514708 0.89934,-2.191636 1.34941,-3.794267 1.34941,-4.807135 0,-0.663603 -0.37984,-1.235151 -1.13948,-1.715391 0.68106,-0.296874 1.69793,-0.807676 3.05133,-1.5324 1.19624,0.672334 1.79454,1.436166 1.79454,2.291865 0,0.445312 -0.0524,0.938837 -0.15717,1.480198 -0.11352,0.532629 -0.2314,0.912456 -0.35364,1.139477 -0.13096,0.218291 -0.45841,0.58502 -0.9823,1.100185 -0.53264,0.523899 -1.27919,1.204966 -2.23967,2.043201 -0.0873,0.165902 -0.40165,0.938651 -0.94301,2.318248 -1.67647,0.3318 -2.94275,0.693791 -3.79845,1.086713 -0.5239,-2.156711 -0.96447,-3.697471 -1.32246,-4.623023 -0.34054,-0.846966 -0.6376,-1.528034 -0.89082,-2.043201 -0.21829,-0.445312 -0.64158,-0.816782 -1.27026,-1.113656 0.18336,-0.366729 0.68524,-1.755059 1.50602,-4.164987 z m 18.55327,0.471508 c 1.45818,0.130972 2.69352,0.196462 3.70639,0.196462 0.75092,0 1.4278,-0.01727 2.03029,-0.0522 l -0.70726,1.205152 c 0.65487,0.200826 1.18713,0.624125 1.59751,1.270264 0.41912,0.654873 0.62868,1.462736 0.62868,2.423214 0,0.925552 -0.17863,1.785245 -0.53662,2.579822 -0.36673,0.785846 -0.75548,1.357956 -1.16586,1.715952 -0.41912,0.375461 -1.13948,0.816594 -2.16108,1.323029 -0.18337,0.08732 -0.44113,0.248664 -0.77293,0.484418 -0.25322,0.192096 -0.47114,0.336166 -0.6545,0.432216 -1.70268,-0.0087 -3.25291,-0.489161 -4.64997,-1.440906 -1.39706,-0.925552 -2.0954,-2.095405 -2.0954,-3.509927 0,-2.305149 1.5937,-4.51444 4.78075,-6.627493 z m 0.11788,2.253134 c -0.46278,0.777115 -0.69435,1.580239 -0.69435,2.409742 0,2.261491 1.15675,3.640902 3.47063,4.138605 0.21829,-0.873162 0.32781,-1.728675 0.32781,-2.566912 0,-1.344669 -0.31908,-2.309703 -0.95649,-2.894721 -0.62867,-0.576288 -1.3443,-0.938276 -2.1476,-1.086714 z" /><path
         style="font-size:26.8236px;line-height:1.25;font-family:'Matura MT Script Capitals';-inkscape-font-specification:'Matura MT Script Capitals';letter-spacing:2.29916px;word-spacing:1.72437px;fill:#000000;stroke-width:0.862186"
         d="m 152.65481,61.225747 q 0.98231,0 1.70267,0.681068 0.70726,0.681068 0.70726,1.728865 0,0.98231 -0.70726,1.689573 -0.72036,0.707263 -1.70267,0.707263 -0.98231,0 -1.68957,-0.707263 -0.70727,-0.694166 -0.70727,-1.689573 0,-0.995407 0.70727,-1.70267 0.69416,-0.707263 1.68957,-0.707263 z"
         id="path32" /><path
         style="font-size:26.8236px;line-height:1.25;font-family:'Matura MT Script Capitals';-inkscape-font-specification:'Matura MT Script Capitals';letter-spacing:2.29916px;word-spacing:1.72437px;fill:#000000;stroke-width:0.862186"
         d="m 148.77796,70.878576 0.35363,-1.637182 q 2.63259,-0.432217 6.03793,-2.043204 v 2.305153 l -0.0393,0.982309 q 0,0.196462 0.0131,0.353632 0.0131,0.432216 0.0131,1.191869 0,0.340534 0.0131,0.550093 l 0.0917,2.305153 q 0.0262,0.746556 0.19647,3.35295 -2.69808,0.471509 -4.6889,0.707263 0.18337,-1.65028 0.18337,-4.911548 l -0.0524,-3.287462 q -0.55009,0.222656 -1.17877,0.222656 -0.47151,0 -0.94302,-0.09168 z"
         id="path33" /><path
         style="font-size:26.8236px;line-height:1.25;font-family:'Matura MT Script Capitals';-inkscape-font-specification:'Matura MT Script Capitals';letter-spacing:2.29916px;word-spacing:1.72437px;fill:#000000;stroke-width:0.862186"
         d="m 139.83839,62.522396 2.5671,-0.654873 1.93842,-0.523899 -0.55009,9.665927 -0.19646,3.798264 q 0.96921,0.694165 2.18727,1.401428 v 0.09168 q -1.5586,1.453818 -2.61949,2.868344 -1.80745,-0.379826 -2.69808,-1.558598 -0.89062,-1.191869 -0.89062,-3.19578 0,-0.798945 0.0786,-2.619492 0.0786,-1.75506 0.18337,-9.273003 z"
         id="path34" /><path
         id="path35"
         style="font-size:26.8236px;line-height:1.25;font-family:'Matura MT Script Capitals';-inkscape-font-specification:'Matura MT Script Capitals';letter-spacing:2.29916px;word-spacing:1.72437px;fill:#000000;stroke-width:0.862186"
         d="m 128.67247,67.158701 -2.94693,2.501799 -0.0786,1.270265 -0.0657,2.239662 c 0,1.755058 0.14825,2.946925 0.44513,3.575602 0.28814,0.646141 0.70726,1.139664 1.25735,1.480198 0.5501,0.340534 1.43654,0.5108 2.65897,0.5108 2.35754,0 3.9727,-1.362132 4.84587,-4.086402 h -0.10441 c -0.76838,0.724726 -1.63281,1.087275 -2.59329,1.087275 -0.81204,0 -1.6461,-0.532816 -2.5018,-1.598075 0.32307,0.04366 0.59394,0.06567 0.81223,0.06567 0.57628,0 1.17877,-0.05239 1.80745,-0.157169 0.61994,-0.10478 1.52784,-0.467329 2.72408,-1.087275 0.10478,-0.934285 0.20538,-1.637367 0.30142,-2.108875 0.0699,-0.401655 0.10441,-0.729091 0.10441,-0.982308 0,-0.576288 -0.24411,-1.108542 -0.73308,-1.597514 -0.47151,-0.471508 -1.27519,-0.755473 -2.41031,-0.851521 z m 1.00812,2.632586 c 0.62868,0.0262 1.14422,0.231575 1.54588,0.615767 0.39292,0.37546 0.58938,0.93447 0.58938,1.67666 0,-0.0262 -0.009,0.24885 -0.0264,0.825139 -0.87317,0.05239 -1.68938,0.07858 -2.44903,0.07858 z" /><path
         id="path36"
         style="font-size:26.8236px;line-height:1.25;font-family:'Matura MT Script Capitals';-inkscape-font-specification:'Matura MT Script Capitals';letter-spacing:2.29916px;word-spacing:1.72437px;fill:#008080;stroke-width:0.862186"
         d="m 108.18096,60.898311 c -0.74219,0 -1.80308,0.09168 -3.18268,0.275046 -0.48024,0.550093 -1.43217,1.488929 -2.85543,2.816138 -0.64614,0.602482 -1.19206,1.143655 -1.63737,1.623895 -0.44532,0.471508 -0.851335,0.943016 -1.218061,1.414524 -0.794579,1.510572 -1.759046,3.719859 -2.89416,6.627493 l 1.03451,-0.131349 c 3.562511,-5.142931 5.474731,-7.858277 5.736681,-8.146422 0.89062,-0.07858 1.58061,-0.117877 2.06958,-0.117877 1.78125,0 3.59288,0.462589 5.43525,1.388142 -3.7546,4.086404 -6.22584,6.749922 -7.41334,7.989814 -1.26609,1.318476 -2.27459,2.156712 -3.02551,2.514709 -0.759651,0.357997 -1.514559,0.536621 -2.265478,0.536621 -1.606619,0 -3.540861,-0.737635 -5.802354,-2.213281 -0.567556,0.384192 -1.67192,1.244443 -3.313466,2.580383 0.829504,1.405793 1.724309,2.523253 2.684788,3.352758 0.96048,0.846969 2.270223,1.523856 3.929233,2.030291 1.65028,0.523897 3.592874,0.785847 5.828177,0.785847 5.17785,0 9.86256,-1.401426 14.05374,-4.204279 4.18246,-2.794122 6.27386,-5.989896 6.27386,-9.587328 0,-2.593295 -1.56751,-4.832955 -4.70217,-6.718988 -3.15212,-1.877301 -6.06393,-2.816137 -8.7358,-2.816137 z m 3.37914,6.103221 c 2.03446,1.004138 3.56686,2.261491 4.5972,3.772063 1.0216,1.501841 1.5324,2.732999 1.5324,3.693479 0,0.890626 -0.40602,1.84256 -1.21806,2.855429 -0.80331,1.004138 -2.15235,1.794162 -4.04711,2.37045 -1.88603,0.576288 -3.74169,0.864432 -5.5666,0.864432 -1.84238,0 -3.96834,-0.388183 -6.37827,-1.165299 1.32721,-0.960479 2.56254,-1.9779 3.70639,-3.051891 1.14384,-1.082723 2.17854,-2.191825 3.10409,-3.326937 0.93429,-1.12638 1.77252,-2.208727 2.51471,-3.247792 0.74219,-1.047795 1.32739,-1.969355 1.75525,-2.763934 z" /></g></g></svg>
